M48
; DRILL file {KiCad 5.1.2-f72e74a~84~ubuntu18.04.1} date Sun 21 Jul 2019 21:18:30 BST
; FORMAT={-:-/ absolute / inch / decimal}
; #@! TF.CreationDate,2019-07-21T21:18:30+01:00
; #@! TF.GenerationSoftware,Kicad,Pcbnew,5.1.2-f72e74a~84~ubuntu18.04.1
; #@! TF.FileFunction,Plated,1,2,PTH
FMAT,2
INCH
T1C0.0118
%
G90
G05
T1
X1.8622Y-4.0984
X1.8777Y-4.7444
X1.878Y-4.0472
X1.8937Y-4.0
X1.9094Y-3.9488
X1.9094Y-4.6772
X1.9094Y-4.8268
X1.9094Y-4.8583
X1.9252Y-3.8976
X1.938Y-5.3244
X1.9409Y-3.8504
X1.9528Y-7.4016
X1.9567Y-3.7992
X1.9764Y-5.4567
X1.9803Y-3.752
X1.9803Y-5.2756
X1.9803Y-5.4252
X1.9843Y-7.4016
X2.0157Y-7.4016
X2.0157Y-7.5236
X2.0157Y-7.622
X2.0236Y-3.2989
X2.0472Y-7.4016
X2.0472Y-7.4764
X2.0472Y-7.5709
X2.0472Y-7.7244
X2.0472Y-7.8858
X2.126Y-3.7992
X2.1409Y-2.8
X2.1417Y-3.8504
X2.1496Y-8.2165
X2.1496Y-8.3504
X2.1496Y-8.5
X2.1575Y-3.8976
X2.1654Y-2.0079
X2.1654Y-2.8504
X2.1654Y-2.9016
X2.1654Y-2.9488
X2.1654Y-3.0
X2.1654Y-3.0472
X2.1654Y-3.0984
X2.1654Y-3.1496
X2.1654Y-3.1969
X2.1732Y-3.9488
X2.1732Y-8.4488
X2.1738Y-8.1929
X2.1772Y-6.6417
X2.1772Y-6.7008
X2.1772Y-6.748
X2.1772Y-6.8504
X2.185Y-7.0776
X2.185Y-7.6732
X2.189Y-4.0
X2.189Y-5.7953
X2.189Y-6.0748
X2.189Y-6.126
X2.1929Y-7.8346
X2.1929Y-6.2301
X2.1935Y-2.0287
X2.2034Y-6.6181
X2.2036Y-8.1772
X2.2047Y-4.0512
X2.2126Y-5.874
X2.2205Y-4.0984
X2.2232Y-2.0445
X2.2244Y-7.8346
X2.2341Y-6.6024
X2.2441Y-4.1496
X2.248Y-8.2402
X2.248Y-8.3031
X2.248Y-8.5512
X2.2522Y-2.0602
X2.2559Y-7.8346
X2.2559Y-6.7992
X2.2559Y-6.9498
X2.2774Y-2.0791
X2.2795Y-6.8504
X2.2795Y-7.0
X2.2874Y-7.8346
X2.3079Y-2.0917
X2.3356Y-2.1075
X2.35Y-4.55
X2.35Y-5.15
X2.35Y-5.85
X2.35Y-6.675
X2.35Y-7.45
X2.35Y-8.275
X2.3621Y-2.1245
X2.3776Y-6.0512
X2.3776Y-8.2008
X2.378Y-5.8224
X2.3933Y-5.9764
X2.3933Y-6.1732
X2.3933Y-7.5236
X2.3937Y-5.9252
X2.3937Y-7.626
X2.4091Y-7.0933
X2.4094Y-6.2301
X2.4094Y-6.8031
X2.425Y-1.475
X2.425Y-2.2
X2.425Y-2.775
X2.425Y-3.675
X2.4252Y-6.9488
X2.4385Y-7.1091
X2.4533Y-6.2616
X2.47Y-7.126
X2.5233Y-4.7278
X2.5354Y-4.1006
X2.5512Y-4.0528
X2.563Y-3.626
X2.563Y-4.875
X2.5669Y-4.0
X2.5669Y-3.748
X2.5827Y-3.95
X2.5827Y-4.6986
X2.5827Y-4.8486
X2.5921Y-5.325
X2.5984Y-3.9016
X2.6142Y-3.8504
X2.6299Y-3.8
X2.65Y-1.413
X2.65Y-1.5475
X2.65Y-1.7
X2.6535Y-3.748
X2.6535Y-5.2986
X2.6535Y-5.4486
X2.6817Y-5.475
X2.6992Y-6.9236
X2.7008Y-6.2459
X2.7008Y-6.7244
X2.7126Y-7.5236
X2.7323Y-5.9764
X2.7362Y-6.9252
X2.7362Y-7.7717
X2.7402Y-8.1815
X2.7402Y-8.4488
X2.7402Y-8.5
X2.7402Y-6.5657
X2.7638Y-5.7722
X2.8189Y-2.2008
X2.8189Y-3.1
X2.8189Y-3.1528
X2.8189Y-3.2008
X2.8425Y-2.248
X2.8425Y-2.3504
X2.8425Y-3.0512
X2.8465Y-5.7565
X2.8465Y-5.874
X2.8465Y-6.0236
X2.8465Y-6.126
X2.8465Y-6.2931
X2.8622Y-6.8504
X2.8622Y-6.9
X2.8622Y-7.3228
X2.8622Y-7.4764
X2.8701Y-5.9252
X2.8701Y-5.9994
X2.8701Y-6.0778
X2.874Y-2.3504
X2.874Y-2.5
X2.878Y-2.4331
X2.878Y-6.3089
X2.8898Y-2.6142
X2.8937Y-2.8465
X2.8937Y-2.95
X2.8937Y-5.7407
X2.8937Y-6.175
X2.8962Y-3.0028
X2.9097Y-2.8988
X2.9173Y-6.0236
X2.9213Y-2.2244
X2.9213Y-2.4252
X2.9213Y-2.3236
X2.9213Y-2.3764
X2.9213Y-2.6209
X2.9214Y-5.725
X2.925Y-7.525
X2.925Y-7.575
X2.9331Y-6.8465
X2.9331Y-7.1051
X2.9409Y-5.9803
X2.9409Y-6.3246
X2.9789Y-2.1742
X3.025Y-4.55
X3.025Y-5.15
X3.025Y-5.85
X3.025Y-6.675
X3.025Y-7.45
X3.025Y-8.275
X3.0551Y-2.248
X3.0551Y-2.4488
X3.0551Y-2.6051
X3.0628Y-5.925
X3.0628Y-6.6104
X3.063Y-8.1972
X3.0824Y-2.6209
X3.0864Y-6.126
X3.0864Y-6.3246
X3.0864Y-7.5984
X3.0866Y-6.9016
X3.1Y-1.475
X3.1Y-2.775
X3.1Y-3.675
X3.1654Y-2.0051
X3.1732Y-1.55
X3.1762Y-4.625
X3.1929Y-4.1
X3.1943Y-2.0174
X3.1969Y-1.5984
X3.2Y-8.275
X3.2Y-8.35
X3.2022Y-1.5264
X3.2087Y-4.05
X3.2126Y-1.65
X3.2211Y-4.7514
X3.2233Y-2.0051
X3.2244Y-4.0
X3.2283Y-1.7
X3.2362Y-3.6299
X3.2362Y-3.748
X3.2392Y-4.6486
X3.2396Y-4.7986
X3.2402Y-3.95
X3.2441Y-1.75
X3.2513Y-2.0196
X3.2514Y-5.225
X3.2559Y-3.9
X3.2598Y-1.7972
X3.2717Y-3.8504
X3.2756Y-1.8472
X3.2792Y-2.0051
X3.2844Y-5.375
X3.2874Y-3.8
X3.2913Y-1.9
X3.3055Y-2.0225
X3.311Y-3.748
X3.314Y-5.3986
X3.3153Y-5.2504
X3.3307Y-5.4258
X3.3328Y-2.0068
X3.3346Y-5.0866
X3.3582Y-2.0254
X3.3898Y-1.9882
X3.3898Y-7.5236
X3.3907Y-7.3071
X3.4094Y-5.7717
X3.4094Y-5.874
X3.418Y-4.8235
X3.4213Y-4.488
X3.45Y-1.3972
X3.45Y-1.5
X3.4882Y-4.488
X3.4961Y-2.252
X3.4961Y-2.4488
X3.4961Y-2.8465
X3.4961Y-2.8976
X3.4961Y-2.9488
X3.4961Y-3.0
X3.4961Y-7.1524
X3.5197Y-4.488
X3.5197Y-5.1772
X3.5197Y-5.325
X3.5197Y-7.388
X3.5276Y-2.252
X3.5388Y-8.6683
X3.54Y-8.4525
X3.5433Y-4.575
X3.5433Y-4.675
X3.5433Y-4.8504
X3.5433Y-5.2756
X3.5433Y-5.3976
X3.5433Y-5.7087
X3.5433Y-5.9764
X3.5433Y-6.0236
X3.5433Y-6.0748
X3.5472Y-7.675
X3.55Y-8.1657
X3.55Y-8.4
X3.5504Y-7.3722
X3.5591Y-6.2459
X3.5591Y-6.8
X3.5591Y-2.4488
X3.56Y-6.85
X3.5669Y-4.7222
X3.5669Y-4.8228
X3.57Y-4.4565
X3.5827Y-6.95
X3.5827Y-7.1524
X3.5827Y-7.5748
X3.5827Y-7.7244
X3.5984Y-5.9252
X3.5984Y-6.126
X3.6009Y-2.6524
X3.6009Y-4.4407
X3.6053Y-7.7756
X3.6053Y-7.9134
X3.6063Y-7.4764
X3.6063Y-7.626
X3.6063Y-4.675
X3.6102Y-6.9016
X3.622Y-6.0748
X3.622Y-6.3268
X3.6285Y-1.95
X3.6294Y-2.6366
X3.6313Y-4.425
X3.6378Y-3.0512
X3.6535Y-3.0984
X3.6561Y-2.1742
X3.6587Y-2.6209
X3.6606Y-3.7
X3.6614Y-4.2051
X3.6627Y-4.4092
X3.6693Y-3.1496
X3.689Y-2.6063
X3.6929Y-3.2008
X3.6929Y-3.248
X3.6929Y-3.3236
X3.7Y-4.55
X3.7Y-5.15
X3.7Y-5.85
X3.7Y-6.675
X3.7Y-7.45
X3.7Y-8.275
X3.7276Y-7.2778
X3.7276Y-7.5236
X3.7283Y-2.5236
X3.7283Y-2.6051
X3.7323Y-7.6762
X3.7402Y-5.9764
X3.7402Y-6.126
X3.7402Y-6.175
X3.7402Y-6.2774
X3.7402Y-6.5787
X3.7402Y-6.748
X3.748Y-4.4565
X3.7598Y-5.275
X3.7675Y-8.575
X3.775Y-1.475
X3.775Y-2.775
X3.775Y-3.675
X3.7835Y-4.4565
X3.7835Y-5.4258
X3.8Y-8.35
X3.8Y-8.45
X3.815Y-6.55
X3.8346Y-5.8071
X3.8346Y-6.0236
X3.8386Y-6.7475
X3.8583Y-2.8764
X3.8583Y-3.748
X3.8583Y-3.8
X3.8583Y-3.8528
X3.8583Y-3.9
X3.8583Y-3.95
X3.8583Y-4.0
X3.8583Y-4.0512
X3.8583Y-4.1024
X3.8819Y-2.9252
X3.8976Y-2.9736
X3.9134Y-3.0264
X3.9291Y-3.0764
X3.937Y-2.0209
X3.9449Y-3.126
X3.9606Y-3.1764
X3.9688Y-8.1815
X3.9764Y-2.0209
X3.9764Y-3.2244
X3.9843Y-5.473
X3.9921Y-7.7244
X3.9921Y-4.7283
X3.9938Y-5.1744
X3.9961Y-4.0028
X3.9961Y-4.3583
X3.9961Y-7.575
X4.0Y-8.1772
X4.0079Y-5.4961
X4.0118Y-5.374
X4.014Y-5.1986
X4.0157Y-4.5984
X4.0157Y-4.7756
X4.0315Y-8.1815
X4.0317Y-2.6856
X4.0376Y-5.2514
X4.0394Y-4.6496
X4.0394Y-4.7466
X4.0394Y-4.878
X4.0394Y-5.3504
X4.0512Y-4.6024
X4.0536Y-7.8819
X4.0551Y-2.7123
X4.0718Y-4.8789
X4.0787Y-6.0236
X4.0787Y-6.2301
X4.0866Y-7.4764
X4.0866Y-7.8661
X4.0866Y-7.626
X4.0965Y-6.75
X4.0984Y-6.7992
X4.0992Y-6.7
X4.1018Y-2.6766
X4.1024Y-2.713
X4.1339Y-1.413
X4.1339Y-1.5
X4.1339Y-2.713
X4.1339Y-2.8504
X4.1339Y-2.8976
X4.1339Y-2.9488
X4.1339Y-3.0
X4.1339Y-3.0512
X4.1339Y-3.1024
X4.1344Y-3.1532
X4.1378Y-3.3051
X4.1378Y-3.748
X4.1575Y-3.2008
X4.1575Y-3.8
X4.1575Y-5.0866
X4.1575Y-7.0866
X4.1629Y-2.6972
X4.165Y-3.321
X4.1732Y-3.85
X4.1845Y-6.3246
X4.189Y-3.9
X4.1954Y-5.2239
X4.1968Y-5.192
X4.1969Y-5.3937
X4.1969Y-5.4252
X4.2047Y-6.5657
X4.2047Y-6.95
X4.2047Y-7.0
X4.2047Y-8.3504
X4.2047Y-8.5
X4.2047Y-3.95
X4.2047Y-4.8267
X4.2126Y-5.874
X4.2126Y-6.0748
X4.2126Y-6.3089
X4.217Y-5.4494
X4.2205Y-4.874
X4.2205Y-4.0028
X4.2244Y-4.622
X4.2362Y-4.8278
X4.2362Y-6.126
X4.2362Y-4.05
X4.2362Y-4.5912
X4.2402Y-5.7402
X4.2441Y-5.925
X4.245Y-5.2756
X4.2496Y-1.9236
X4.2497Y-7.8504
X4.252Y-4.1024
X4.252Y-4.7244
X4.2673Y-1.8736
X4.2687Y-5.3937
X4.2717Y-5.2486
X4.2827Y-1.8236
X4.2835Y-4.0528
X4.2835Y-4.6772
X4.2835Y-4.8228
X4.2835Y-7.5748
X4.2835Y-7.7244
X4.2835Y-7.8346
X4.2835Y-4.1024
X4.2933Y-1.7736
X4.2988Y-5.7064
X4.3031Y-4.9016
X4.3031Y-5.525
X4.3031Y-6.5815
X4.3031Y-6.7992
X4.3031Y-6.8543
X4.3031Y-6.8976
X4.3031Y-7.1051
X4.3071Y-8.3976
X4.315Y-1.7236
X4.3303Y-1.6736
X4.3346Y-7.1051
X4.3449Y-1.6236
X4.3555Y-1.5736
X4.3701Y-2.8937
X4.3701Y-2.9488
X4.3701Y-3.0
X4.3701Y-3.0512
X4.3701Y-3.0984
X4.3701Y-3.1496
X4.3701Y-3.2008
X4.3701Y-3.25
X4.375Y-4.55
X4.375Y-5.15
X4.375Y-5.85
X4.375Y-6.675
X4.375Y-7.45
X4.375Y-8.275
X4.4103Y-4.9164
X4.4134Y-4.9801
X4.4134Y-5.7402
X4.4134Y-6.075
X4.4134Y-6.2616
X4.4134Y-6.5972
X4.4134Y-6.748
X4.4213Y-7.3565
X4.4252Y-6.9488
X4.437Y-5.925
X4.437Y-6.0276
X4.437Y-6.1732
X4.4449Y-7.0
X4.45Y-1.475
X4.45Y-2.2
X4.45Y-2.775
X4.45Y-3.675
X4.45Y-8.45
X4.45Y-8.55
X4.4528Y-7.3565
X4.4606Y-7.05
X4.475Y-8.4
X4.475Y-8.475
X4.4776Y-2.3975
X4.4843Y-6.126
X4.4872Y-7.3003
X4.4961Y-4.5906
X4.4961Y-4.7008
X4.4961Y-5.4724
X4.4963Y-6.3404
X4.5094Y-7.3225
X4.5118Y-1.9488
X4.5118Y-2.0209
X4.5172Y-4.0
X4.5197Y-3.7528
X4.5197Y-3.8
X4.5197Y-3.8528
X4.5197Y-3.9
X4.5197Y-3.9528
X4.521Y-5.3278
X4.5384Y-5.1998
X4.5433Y-5.4222
X4.5433Y-5.4961
X4.5435Y-6.3561
X4.5435Y-7.1366
X4.5441Y-5.3063
X4.5709Y-5.475
X4.5866Y-4.8504
X4.5945Y-2.8528
X4.5959Y-3.5815
X4.6181Y-2.8268
X4.6196Y-4.1776
X4.6575Y-2.0366
X4.689Y-2.0366
X4.689Y-7.626
X4.689Y-7.7756
X4.7248Y-6.3246
X4.7323Y-6.0236
X4.748Y-7.5748
X4.7559Y-5.874
X4.7559Y-6.315
X4.7559Y-6.874
X4.7638Y-8.4488
X4.7677Y-4.575
X4.7677Y-4.626
X4.7677Y-4.6732
X4.7677Y-4.7244
X4.7677Y-4.7756
X4.7677Y-5.2756
X4.7756Y-4.362
X4.7992Y-3.3681
X4.8031Y-3.7165
X4.8228Y-1.3937
X4.8228Y-1.5
X4.8461Y-2.3502
X4.8465Y-2.8504
X4.8465Y-2.2008
X4.8465Y-2.9016
X4.8465Y-2.9528
X4.8465Y-3.0
X4.8465Y-3.0512
X4.8465Y-3.0984
X4.8465Y-3.1496
X4.8465Y-3.2008
X4.8496Y-3.7764
X4.8701Y-2.2231
X4.8701Y-5.4252
X4.8732Y-3.8264
X4.8774Y-5.225
X4.878Y-5.2756
X4.878Y-5.925
X4.878Y-6.0748
X4.878Y-8.1654
X4.878Y-8.5472
X4.878Y-8.5984
X4.8801Y-5.175
X4.8801Y-5.5411
X4.8858Y-6.2795
X4.8858Y-7.6299
X4.8858Y-7.8307
X4.889Y-3.8764
X4.897Y-2.3529
X4.9016Y-8.4016
X4.9016Y-6.1496
X4.9016Y-7.7008
X4.9047Y-3.9264
X4.9055Y-2.5212
X4.9061Y-8.15
X4.9094Y-7.4764
X4.9134Y-2.3819
X4.9205Y-3.9764
X4.9213Y-5.3268
X4.9213Y-5.375
X4.9252Y-4.8268
X4.9252Y-5.9764
X4.9291Y-8.5
X4.9362Y-4.0264
X4.9362Y-4.7756
X4.952Y-4.0764
X4.952Y-4.7244
X4.9534Y-8.374
X4.9567Y-2.3268
X4.9571Y-2.4599
X4.9606Y-7.5551
X4.9606Y-7.7244
X4.9677Y-4.1264
X4.9677Y-4.6732
X4.9856Y-5.5236
X4.9921Y-3.613
X4.9921Y-5.425
X5.0065Y-2.1703
X5.0236Y-3.613
X5.0341Y-2.0209
X5.0354Y-1.9488
X5.0433Y-4.5512
X5.0433Y-5.1496
X5.05Y-5.85
X5.05Y-6.675
X5.05Y-7.45
X5.05Y-8.275
X5.0787Y-7.388
X5.0787Y-7.626
X5.0974Y-6.175
X5.0975Y-7.7756
X5.0984Y-5.7559
X5.0984Y-6.126
X5.0984Y-7.6514
X5.0984Y-7.7008
X5.0984Y-8.1815
X5.0984Y-8.4488
X5.1102Y-7.5748
X5.122Y-5.8976
X5.122Y-5.975
X5.122Y-6.0236
X5.125Y-1.475
X5.125Y-2.775
X5.125Y-3.675
X5.126Y-7.2987
X5.1417Y-6.0748
X5.1457Y-5.9218
X5.1466Y-5.7087
X5.1483Y-7.3224
X5.1732Y-3.3839
X5.1929Y-4.3463
X5.196Y-4.2209
X5.1968Y-4.6254
X5.1969Y-2.8528
X5.1969Y-2.9028
X5.1969Y-2.9528
X5.1969Y-3.0028
X5.1969Y-3.0528
X5.1969Y-3.1028
X5.1969Y-3.2
X5.1969Y-4.1024
X5.1976Y-3.1528
X5.2196Y-4.1251
X5.2205Y-4.0463
X5.2205Y-4.0778
X5.2205Y-4.748
X5.2205Y-4.7992
X5.2362Y-4.0
X5.248Y-4.6457
X5.252Y-3.9528
X5.2598Y-4.6024
X5.2608Y-4.0236
X5.2717Y-3.9016
X5.2756Y-3.9764
X5.2835Y-3.8504
X5.2874Y-3.9291
X5.2992Y-5.3465
X5.2992Y-5.3976
X5.2992Y-5.4528
X5.2992Y-3.7992
X5.3071Y-3.874
X5.315Y-3.8268
X5.3189Y-3.75
X5.3215Y-5.475
X5.3238Y-5.2992
X5.3386Y-3.7756
X5.3394Y-3.7236
X5.35Y-2.8
X5.3631Y-7.3703
X5.3711Y-4.5787
X5.3775Y-7.725
X5.378Y-6.2301
X5.3868Y-4.7756
X5.3898Y-6.9488
X5.4094Y-5.975
X5.4094Y-6.2301
X5.4094Y-6.752
X5.4094Y-6.8504
X5.4094Y-7.388
X5.4125Y-1.35
X5.4331Y-5.7244
X5.4331Y-5.925
X5.4331Y-6.0236
X5.4331Y-6.613
X5.4331Y-6.7008
X5.4331Y-6.9
X5.4331Y-8.1969
X5.4331Y-8.4488
X5.4331Y-8.5748
X5.4506Y-8.6514
X5.4724Y-1.3815
X5.4724Y-1.5
X5.4736Y-1.55
X5.4764Y-2.8504
X5.4764Y-2.9016
X5.4764Y-2.95
X5.4764Y-3.0
X5.4764Y-3.05
X5.4764Y-3.1
X5.4764Y-3.15
X5.4764Y-3.2008
X5.4984Y-1.6
X5.5154Y-1.65
X5.5236Y-3.3681
X5.5323Y-1.7
X5.5453Y-1.75
X5.5472Y-4.7283
X5.5472Y-4.8268
X5.5492Y-5.3778
X5.5492Y-5.425
X5.5512Y-5.3228
X5.5591Y-5.7565
X5.5591Y-5.874
X5.5591Y-6.126
X5.5591Y-7.8301
X5.5591Y-8.2992
X5.5622Y-1.8
X5.5625Y-6.5815
X5.5625Y-6.8
X5.563Y-7.3565
X5.563Y-7.4764
X5.563Y-7.626
X5.5709Y-3.3366
X5.5709Y-4.6037
X5.5748Y-3.613
X5.5772Y-4.8145
X5.5783Y-1.85
X5.5827Y-6.0748
X5.5841Y-5.9986
X5.5929Y-1.9
X5.6185Y-2.85
X5.6299Y-7.0
X5.6299Y-7.3722
X5.6299Y-7.7244
X5.6339Y-6.1486
X5.6535Y-6.175
X5.6535Y-6.3089
X5.7087Y-1.95
X5.7087Y-2.0366
X5.7146Y-3.6988
X5.7165Y-4.5512
X5.7248Y-8.275
X5.725Y-5.85
X5.725Y-6.675
X5.725Y-7.45
X5.7283Y-5.1496
X5.7506Y-3.3693
X5.7514Y-7.6772
X5.7638Y-6.8031
X5.7638Y-6.8504
X5.7638Y-7.5236
X5.7638Y-8.1185
X5.7638Y-8.5
X5.765Y-7.8616
X5.7677Y-4.622
X5.7683Y-4.725
X5.7717Y-7.0847
X5.775Y-7.775
X5.7835Y-3.3681
X5.7874Y-5.925
X5.7874Y-6.0748
X5.7874Y-8.4264
X5.7874Y-8.5512
X5.7925Y-4.7775
X5.8Y-1.475
X5.8Y-2.775
X5.8Y-3.675
X5.8011Y-7.625
X5.8031Y-6.5815
X5.8031Y-6.748
X5.8268Y-8.1185
X5.85Y-4.675
X5.8504Y-7.3092
X6.0Y-4.1404
X6.0Y-7.5551
X6.0079Y-2.0051
X6.0236Y-3.75
X6.0236Y-3.7992
X6.0236Y-3.8504
X6.0236Y-3.8986
X6.0236Y-3.9488
X6.0236Y-4.0
X6.0236Y-4.0512
X6.0236Y-4.0986
X6.0236Y-5.2008
X6.0242Y-3.225
X6.0491Y-7.3722
X6.0492Y-7.5246
X6.0512Y-6.0748
X6.0512Y-6.2774
X6.0709Y-5.375
X6.073Y-4.3463
X6.0775Y-8.35
X6.0775Y-8.6709
X6.0787Y-2.45
X6.0787Y-6.7972
X6.0787Y-6.9488
X6.0787Y-7.0866
X6.08Y-5.0875
X6.09Y-5.4758
X6.0945Y-5.4252
X6.1014Y-6.5972
X6.1024Y-4.362
X6.1024Y-4.5748
X6.1024Y-4.626
X6.1024Y-6.0276
X6.1024Y-6.2301
X6.1024Y-6.7008
X6.1024Y-6.8504
X6.1024Y-7.388
X6.1024Y-8.087
X6.1024Y-8.4
X6.1024Y-8.45
X6.1024Y-8.5512
X6.1102Y-5.1772
X6.1142Y-4.6772
X6.1142Y-4.8268
X6.1181Y-5.2283
X6.1504Y-3.7
X6.1535Y-3.613
X6.1575Y-1.3657
X6.1575Y-1.5
X6.1928Y-4.3778
X6.2195Y-2.4498
X6.2205Y-4.7244
X6.2205Y-4.8268
X6.2205Y-4.9488
X6.2205Y-5.325
X6.2221Y-4.3935
X6.2362Y-7.623
X6.2402Y-8.45
X6.2402Y-8.5
X6.2402Y-8.5748
X6.2441Y-8.2992
X6.2441Y-4.775
X6.2441Y-5.925
X6.2441Y-6.1024
X6.251Y-4.4092
X6.2598Y-6.2932
X6.2598Y-6.5972
X6.2598Y-7.3565
X6.2598Y-7.6742
X6.2598Y-7.8459
X6.2638Y-4.2209
X6.2677Y-5.0722
X6.2677Y-5.2725
X6.2677Y-5.4278
X6.2677Y-5.5301
X6.2717Y-5.874
X6.2756Y-6.95
X6.2756Y-8.2992
X6.2756Y-8.4213
X6.2756Y-8.6
X6.2792Y-4.425
X6.2795Y-4.15
X6.2952Y-5.8982
X6.2952Y-6.126
X6.2953Y-4.0972
X6.2992Y-6.2616
X6.2992Y-6.748
X6.2992Y-6.8976
X6.2992Y-7.0591
X6.2992Y-8.3268
X6.2992Y-8.45
X6.3071Y-2.2913
X6.3071Y-2.2008
X6.3071Y-2.248
X6.3071Y-2.4252
X6.3071Y-2.9016
X6.3071Y-2.9488
X6.3071Y-3.0
X6.3071Y-3.0512
X6.3071Y-3.0984
X6.3071Y-3.1496
X6.3071Y-3.2008
X6.3071Y-2.8504
X6.3077Y-4.4407
X6.311Y-4.05
X6.3268Y-3.9972
X6.3375Y-5.375
X6.3375Y-5.5459
X6.338Y-4.4565
X6.3425Y-3.9472
X6.3569Y-2.1742
X6.3583Y-3.8976
X6.3692Y-4.4722
X6.374Y-3.85
X6.3898Y-4.5512
X6.3976Y-3.8
X6.3976Y-4.488
X6.4Y-5.85
X6.4Y-6.675
X6.4Y-7.45
X6.4Y-8.275
X6.4016Y-5.1496
X6.4094Y-2.248
X6.4094Y-3.6752
X6.4125Y-2.6051
X6.4134Y-2.4488
X6.4134Y-2.5472
X6.4291Y-4.9331
X6.437Y-5.2008
X6.437Y-4.875
X6.4375Y-5.5301
X6.4409Y-5.7565
X6.4409Y-5.9764
X6.4409Y-6.752
X6.4409Y-7.3722
X6.4409Y-8.213
X6.4409Y-8.5512
X6.4606Y-5.088
X6.4646Y-5.9213
X6.4646Y-6.874
X6.4646Y-7.8307
X6.4646Y-8.0709
X6.4646Y-8.4016
X6.4675Y-3.3366
X6.4685Y-5.3268
X6.4733Y-3.613
X6.475Y-1.475
X6.475Y-2.775
X6.4803Y-7.1024
X6.4882Y-6.5815
X6.4882Y-8.3504
X6.4882Y-4.2209
X6.4921Y-5.4724
X6.501Y-7.0
X6.5077Y-6.9028
X6.5157Y-4.8236
X6.5197Y-4.6732
X6.5207Y-7.325
X6.5262Y-4.2524
X6.5354Y-1.95
X6.5354Y-2.0366
X6.5453Y-7.5
X6.5558Y-4.2681
X6.563Y-4.7746
X6.57Y-8.6709
X6.5775Y-6.8504
X6.5787Y-5.0407
X6.5787Y-5.2725
X6.5827Y-4.625
X6.5837Y-7.3092
X6.5866Y-6.3089
X6.5945Y-2.4016
X6.6063Y-4.7275
X6.7125Y-6.1514
X6.7165Y-6.7283
X6.7376Y-6.0236
X6.7559Y-6.126
X6.7559Y-6.7992
X6.7559Y-6.8465
X6.7569Y-7.3407
X6.7598Y-5.874
X6.7598Y-5.9961
X6.7717Y-8.1185
X6.7717Y-8.3986
X6.7795Y-6.6102
X6.7795Y-6.7008
X6.7795Y-6.7756
X6.7795Y-6.8976
X6.7835Y-5.7722
X6.7835Y-6.0236
X6.7835Y-6.0748
X6.8101Y-6.5972
X6.825Y-1.5
X6.8375Y-7.1339
X6.8657Y-3.5736
X6.8661Y-4.2861
X6.8665Y-2.85
X6.894Y-3.5894
X6.8975Y-5.375
X6.8975Y-5.5794
X6.8976Y-5.4252
X6.8976Y-4.6732
X6.8976Y-4.825
X6.9173Y-5.788
X6.9173Y-5.9724
X6.9173Y-8.2992
X6.9173Y-8.3465
X6.9173Y-8.5236
X6.9213Y-3.5736
X6.9409Y-6.0236
X6.9409Y-8.5
X6.9409Y-8.55
X6.9409Y-8.6709
X6.9449Y-4.874
X6.9472Y-1.9236
X6.9567Y-6.0984
X6.9567Y-6.752
X6.9567Y-7.8307
X6.9606Y-4.575
X6.961Y-1.8736
X6.9646Y-5.4252
X6.9691Y-8.6952
X6.9724Y-8.0555
X6.9756Y-1.8236
X6.9875Y-6.3313
X6.9882Y-5.975
X6.9941Y-1.7736
X7.0Y-8.499
X7.0Y-8.5492
X7.0Y-8.6866
X7.0025Y-5.5951
X7.0039Y-4.7244
X7.0039Y-4.8268
X7.011Y-1.7236
X7.0272Y-1.6736
X7.0409Y-1.6236
X7.0579Y-1.5736
X7.0669Y-2.9
X7.0669Y-2.9488
X7.0669Y-2.9972
X7.0669Y-3.05
X7.0669Y-3.1
X7.0669Y-3.1496
X7.0669Y-3.1972
X7.0669Y-3.248
X7.0669Y-5.1496
X7.074Y-5.8492
X7.074Y-5.8492
X7.075Y-4.55
X7.075Y-6.675
X7.075Y-7.45
X7.075Y-8.275
X7.0925Y-3.3875
X7.1102Y-7.3565
X7.1102Y-8.4488
X7.1102Y-8.6551
X7.1142Y-6.126
X7.1142Y-6.3156
X7.1142Y-6.8504
X7.1142Y-7.0
X7.1142Y-7.0709
X7.1161Y-6.0197
X7.1175Y-5.925
X7.1264Y-5.025
X7.1264Y-5.225
X7.1339Y-8.4016
X7.1378Y-8.6
X7.1391Y-8.6709
X7.1457Y-7.0709
X7.15Y-1.475
X7.15Y-2.2
X7.15Y-2.775
X7.15Y-3.675
X7.15Y-4.6975
X7.15Y-5.275
X7.15Y-5.325
X7.15Y-5.3725
X7.15Y-5.475
X7.1614Y-6.5815
X7.1722Y-7.8616
X7.1894Y-5.5951
X7.1929Y-7.55
X7.195Y-6.5815
X7.1993Y-3.3001
X7.2008Y-1.9488
X7.2047Y-2.713
X7.2047Y-2.8976
X7.2047Y-2.95
X7.2047Y-2.9972
X7.2047Y-3.05
X7.2047Y-3.0972
X7.2047Y-3.1472
X7.2047Y-3.2
X7.2087Y-6.075
X7.2223Y-6.5657
X7.2283Y-3.25
X7.2362Y-3.3051
X7.2362Y-2.713
X7.2677Y-2.7125
X7.2992Y-2.7126
X7.3307Y-2.7126
X7.3622Y-2.7126
X7.3661Y-4.675
X7.374Y-4.488
X7.374Y-4.8061
X7.3819Y-6.7
X7.3898Y-3.975
X7.3898Y-4.7756
X7.3976Y-6.9
X7.4055Y-8.4497
X7.4124Y-8.7339
X7.4125Y-5.5284
X7.4134Y-4.6189
X7.4134Y-4.6504
X7.4134Y-5.374
X7.4134Y-5.4488
X7.4238Y-7.3722
X7.4278Y-1.3657
X7.4291Y-6.1974
X7.4291Y-6.286
X7.4291Y-7.4724
X7.4291Y-7.6772
X7.4357Y-5.3976
X7.437Y-4.825
X7.437Y-5.0092
X7.4409Y-4.752
X7.4528Y-6.0472
X7.4528Y-6.613
X7.4528Y-7.388
X7.4528Y-7.5276
X7.4528Y-8.213
X7.4528Y-8.3031
X7.456Y-1.3815
X7.4606Y-4.5748
X7.4606Y-4.7244
X7.4646Y-8.5
X7.4764Y-7.1181
X7.4764Y-7.5748
X7.4764Y-7.8459
X7.4825Y-5.6261
X7.4857Y-1.3972
X7.5127Y-5.6419
X7.5157Y-1.413
X7.5364Y-5.5076
X7.5425Y-1.5
X7.5594Y-3.85
X7.5673Y-8.15
X7.5675Y-5.4252
X7.57Y-6.125
X7.5709Y-4.488
X7.5709Y-4.625
X7.5748Y-6.748
X7.5748Y-6.8504
X7.5813Y-3.9252
X7.5827Y-4.0933
X7.5831Y-4.9935
X7.5831Y-5.175
X7.5906Y-8.3494
X7.5984Y-7.627
X7.5984Y-7.7244
X7.5988Y-5.225
X7.6142Y-5.9764
X7.6142Y-7.8683
X7.6146Y-4.4565
X7.6146Y-4.775
X7.6146Y-5.6576
X7.6185Y-8.087
X7.6299Y-5.925
X7.6382Y-3.85
X7.6535Y-5.874
X7.6618Y-5.275
X7.6772Y-6.126
X7.6772Y-6.2801
X7.6772Y-7.5984
X7.6772Y-7.6496
X7.6772Y-7.7008
X7.6786Y-8.0704
X7.7025Y-7.8841
X7.7165Y-7.1248
X7.7422Y-3.3209
X7.7441Y-3.25
X7.749Y-5.8492
X7.75Y-3.675
X7.75Y-4.55
X7.75Y-5.15
X7.75Y-6.675
X7.75Y-7.45
X7.75Y-8.275
X7.7874Y-5.6734
X7.7913Y-5.7557
X7.7913Y-5.9764
X7.7943Y-8.6
X7.7953Y-6.0748
X7.7953Y-6.3274
X7.7953Y-8.4016
X7.7953Y-8.5512
X7.7953Y-8.7496
X7.8Y-4.4407
X7.8Y-4.675
X7.8Y-4.725
X7.81Y-4.825
X7.81Y-4.875
X7.811Y-4.9301
X7.811Y-5.1969
X7.8189Y-6.5815
X7.8189Y-7.325
X7.8189Y-7.6732
X7.8189Y-8.1024
X7.8189Y-8.4488
X7.825Y-1.475
X7.825Y-2.2
X7.825Y-2.775
X7.8268Y-8.7654
X7.83Y-4.425
X7.8307Y-5.925
X7.8346Y-5.6734
X7.8346Y-6.225
X7.8356Y-7.7244
X7.842Y-6.3436
X7.8504Y-8.1028
X7.8513Y-7.775
X7.8701Y-2.0051
X7.8701Y-3.3786
X7.874Y-1.413
X7.874Y-1.95
X7.874Y-2.8504
X7.874Y-2.9016
X7.874Y-2.9488
X7.874Y-3.0
X7.874Y-3.0512
X7.874Y-3.0984
X7.874Y-3.1496
X7.874Y-3.2008
X7.8954Y-2.0287
X7.9249Y-2.0445
X7.9541Y-2.0602
X7.9837Y-2.076
X8.0039Y-2.1705
X8.0079Y-3.5787
X8.0125Y-2.0917
X8.0197Y-3.7244
X8.0197Y-3.9252
X8.0207Y-8.3
X8.0402Y-2.1075
X8.0424Y-8.1342
X8.0642Y-4.4057
X8.0669Y-7.3565
X8.0669Y-7.5225
X8.0679Y-2.1232
X8.0848Y-8.1657
X8.0866Y-6.1752
X8.1084Y-4.0933
X8.1093Y-3.9459
X8.1102Y-4.626
X8.1102Y-5.9252
X8.1142Y-3.7992
X8.122Y-6.7008
X8.1299Y-8.213
X8.1299Y-8.4488
X8.1339Y-4.4722
X8.1339Y-4.7756
X8.1339Y-5.088
X8.1339Y-5.2717
X8.1378Y-3.613
X8.1378Y-3.7008
X8.1378Y-4.0776
X8.1457Y-7.3565
X8.1457Y-7.5748
X8.1457Y-7.626
X8.1457Y-7.6732
X8.1457Y-7.7244
X8.1457Y-7.7756
X8.1496Y-5.7872
X8.1496Y-6.0748
X8.15Y-2.1547
X8.1614Y-4.1614
X8.1811Y-1.3972
X8.1811Y-1.4961
X8.185Y-2.8
X8.222Y-5.7239
X8.2441Y-3.748
X8.2441Y-3.8976
X8.2441Y-4.825
X8.2441Y-5.325
X8.2441Y-5.5776
X8.2453Y-1.55
X8.2475Y-6.85
X8.25Y-6.5657
X8.25Y-7.3407
X8.25Y-7.475
X8.2675Y-4.4565
X8.2677Y-5.7715
X8.2677Y-5.874
X8.2677Y-5.9724
X8.2677Y-8.3504
X8.2677Y-8.4528
X8.2681Y-1.85
X8.269Y-4.6129
X8.3071Y-6.0236
X8.3075Y-4.8014
X8.325Y-8.35
X8.325Y-8.4
X8.33Y-6.3089
X8.3307Y-4.825
X8.3307Y-4.9301
X8.3312Y-5.9982
X8.35Y-5.375
X8.35Y-5.425
X8.4213Y-1.9488
X8.4213Y-2.139
X8.424Y-5.8492
X8.425Y-3.675
X8.425Y-4.55
X8.425Y-5.15
X8.425Y-6.675
X8.425Y-7.45
X8.425Y-7.45
X8.425Y-8.275
X8.462Y-4.4882
X8.4646Y-4.626
X8.4685Y-6.0748
X8.4685Y-7.1209
X8.4921Y-6.175
X8.4921Y-6.31
X8.5Y-1.475
X8.5Y-2.2
X8.5Y-2.775
X8.5232Y-6.3246
X8.5235Y-6.1724
X8.5475Y-5.6268
X8.5475Y-5.425
X8.5551Y-3.0512
X8.5551Y-3.3051
X8.5787Y-3.0984
X8.5809Y-3.3232
X8.5827Y-2.713
X8.5827Y-2.8504
X8.5827Y-2.9016
X8.5827Y-2.9488
X8.5827Y-3.0
X8.5945Y-3.1496
X8.6094Y-2.6964
X8.6098Y-3.3385
X8.6102Y-3.2008
X8.637Y-3.3543
X8.6397Y-2.6815
X8.6698Y-2.6654
X8.7Y-4.875
X8.7244Y-8.15
X8.7402Y-5.325
X8.7488Y-4.3613
X8.7559Y-4.825
X8.7559Y-4.874
X8.7559Y-4.9459
X8.7559Y-5.2
X8.7559Y-5.375
X8.7598Y-7.3858
X8.7598Y-7.6299
X8.7617Y-4.7541
X8.7677Y-8.1972
X8.7705Y-6.5972
X8.7756Y-6.9016
X8.7844Y-8.4006
X8.7864Y-8.7654
X8.7874Y-2.139
X8.7874Y-4.7778
X8.7913Y-2.248
X8.7992Y-5.9252
X8.7992Y-6.2459
X8.7992Y-6.613
X8.7992Y-6.752
X8.7992Y-7.7244
X8.7992Y-8.1972
X8.8081Y-8.3514
X8.8081Y-8.5728
X8.811Y-2.2008
X8.811Y-4.4565
X8.811Y-4.5748
X8.811Y-4.626
X8.811Y-5.7872
X8.815Y-4.7244
X8.815Y-5.874
X8.815Y-2.5
X8.8228Y-7.3701
X8.8386Y-7.3071
X8.8555Y-5.7548
X8.8583Y-1.3815
X8.8583Y-1.5
X8.8622Y-4.2063
X8.877Y-8.7654
X8.9Y-3.5787
X8.9025Y-3.75
X8.9213Y-4.4722
X8.9213Y-4.675
X8.9213Y-6.2774
X8.9213Y-6.8504
X8.9213Y-7.4764
X8.9213Y-7.5957
X8.9213Y-7.7234
X8.9294Y-2.2992
X8.9449Y-6.0748
X8.9449Y-6.7008
X8.9449Y-6.8976
X8.9449Y-7.5748
X8.9449Y-8.6709
X8.9452Y-2.3504
X8.9488Y-5.7715
X8.9609Y-2.4016
X8.9685Y-4.4407
X8.9685Y-6.9488
X8.9685Y-8.5482
X8.9764Y-4.775
X8.9835Y-1.7
X8.9843Y-6.5945
X8.9846Y-2.4533
X8.9846Y-1.65
X8.9854Y-1.55
X8.9866Y-1.6
X8.9882Y-6.0236
X8.9921Y-2.5492
X9.001Y-5.755
X9.0072Y-5.9742
X9.0118Y-8.3504
X9.0157Y-1.413
X9.0157Y-2.4488
X9.0157Y-7.775
X9.0157Y-7.8622
X9.0157Y-6.3404
X9.0236Y-4.7244
X9.0236Y-4.825
X9.0246Y-8.7343
X9.025Y-4.3305
X9.025Y-4.875
X9.025Y-5.925
X9.0315Y-2.8311
X9.0315Y-3.0
X9.0315Y-6.1274
X9.0403Y-5.9739
X9.0551Y-2.8976
X9.0551Y-2.9488
X9.099Y-5.8492
X9.1Y-2.175
X9.1Y-4.55
X9.1Y-5.15
X9.1Y-6.675
X9.1Y-7.45
X9.1Y-8.275
X9.1346Y-2.3
X9.1375Y-4.4407
X9.1375Y-4.625
X9.1417Y-6.7992
X9.1417Y-7.0551
X9.1496Y-5.9764
X9.15Y-4.725
X9.15Y-5.0407
X9.15Y-5.225
X9.15Y-5.275
X9.15Y-5.375
X9.15Y-5.425
X9.1535Y-8.4705
X9.1535Y-8.7181
X9.1583Y-2.35
X9.1646Y-4.4248
X9.1654Y-6.0758
X9.1654Y-6.75
X9.174Y-2.4
X9.175Y-1.475
X9.175Y-2.775
X9.175Y-3.675
X9.1772Y-7.3386
X9.1772Y-7.5275
X9.1772Y-7.725
X9.1772Y-8.4006
X9.1811Y-8.0866
X9.202Y-7.3193
X9.252Y-1.9488
X9.252Y-3.3858
X9.275Y-3.5787
X9.28Y-2.85
X9.2825Y-5.0068
X9.3307Y-3.0
X9.3327Y-4.8268
X9.3327Y-5.025
X9.3327Y-5.195
X9.3465Y-3.0486
X9.3575Y-5.425
X9.3622Y-3.1014
X9.3839Y-3.75
X9.3839Y-8.5522
X9.3841Y-8.0709
X9.3858Y-3.1496
X9.3858Y-3.5972
X9.3858Y-4.675
X9.3858Y-6.7244
X9.3858Y-6.8504
X9.3858Y-7.5502
X9.3858Y-7.675
X9.3937Y-5.0407
X9.3937Y-5.325
X9.3937Y-5.6275
X9.4025Y-4.215
X9.4049Y-3.8504
X9.4094Y-4.622
X9.4094Y-4.75
X9.4094Y-5.7559
X9.4094Y-5.9252
X9.4094Y-7.7244
X9.4132Y-3.5815
X9.4331Y-4.488
X9.4331Y-4.7756
X9.4331Y-6.613
X9.4331Y-8.1185
X9.4331Y-8.2992
X9.435Y-3.9486
X9.437Y-7.5738
X9.438Y-7.4754
X9.4459Y-8.6407
X9.4488Y-2.2244
X9.4498Y-2.501
X9.4769Y-1.3336
X9.4921Y-2.2992
X9.4921Y-2.3504
X9.4921Y-2.3976
X9.4921Y-2.4488
X9.4968Y-6.5415
X9.5261Y-2.5928
X9.5276Y-2.8504
X9.5276Y-2.8986
X9.5276Y-2.9488
X9.5276Y-3.0
X9.5276Y-3.0486
X9.5281Y-3.3046
X9.5295Y-1.75
X9.5354Y-1.3657
X9.5354Y-1.5
X9.5394Y-6.075
X9.5433Y-3.9972
X9.5433Y-4.1496
X9.5433Y-4.7244
X9.5433Y-4.8504
X9.5466Y-2.6167
X9.55Y-3.9
X9.55Y-5.225
X9.55Y-5.5459
X9.5512Y-3.0986
X9.5531Y-1.8
X9.5554Y-3.3226
X9.563Y-7.8301
X9.563Y-6.0276
X9.563Y-6.2616
X9.563Y-6.8504
X9.5669Y-8.3543
X9.5669Y-8.4528
X9.5669Y-3.1514
X9.571Y-2.6367
X9.5725Y-3.8
X9.5736Y-5.275
X9.575Y-4.1772
X9.5768Y-1.85
X9.5827Y-3.2008
X9.5827Y-3.3383
X9.5984Y-7.8459
X9.6004Y-1.9
X9.6014Y-5.9375
X9.6014Y-6.1225
X9.6024Y-2.6339
X9.6128Y-3.3478
X9.622Y-4.3935
X9.622Y-4.874
X9.622Y-6.9488
X9.622Y-7.0709
X9.622Y-8.4528
X9.625Y-6.5972
X9.6252Y-8.552
X9.6299Y-2.3
X9.6299Y-2.3504
X9.6299Y-2.4
X9.6299Y-2.4488
X9.634Y-5.6415
X9.6378Y-3.95
X9.6441Y-1.9236
X9.6457Y-7.52
X9.6457Y-7.8459
X9.6486Y-6.0275
X9.6486Y-6.2931
X9.6496Y-3.5657
X9.6496Y-3.75
X9.6496Y-5.2244
X9.65Y-5.275
X9.65Y-5.325
X9.65Y-5.375
X9.65Y-5.425
X9.6571Y-1.8736
X9.6578Y-3.8011
X9.6614Y-5.0086
X9.6764Y-1.8236
X9.6909Y-1.7736
X9.7079Y-1.7236
X9.724Y-1.6736
X9.725Y-3.675
X9.725Y-4.55
X9.725Y-5.15
X9.725Y-5.85
X9.725Y-7.45
X9.725Y-8.2776
X9.7256Y-6.675
X9.7386Y-1.6236
X9.7547Y-1.5736
X9.7638Y-3.225
X9.7638Y-2.875
X9.7638Y-2.925
X9.7638Y-2.975
X9.7638Y-3.025
X9.7638Y-3.075
X9.7638Y-3.125
X9.7638Y-3.175
X9.7638Y-4.1063
X9.7638Y-8.6024
X9.7659Y-8.3526
X9.7677Y-7.3701
X9.7677Y-7.5748
X9.7756Y-5.3975
X9.7756Y-6.075
X9.7756Y-6.2931
X9.7756Y-8.1028
X9.7765Y-4.725
X9.7874Y-4.0512
X9.7874Y-7.775
X9.7992Y-5.9016
X9.7992Y-6.7244
X9.8002Y-4.8041
X9.801Y-2.175
X9.8031Y-4.626
X9.8032Y-4.0039
X9.8189Y-3.9528
X9.8228Y-7.3529
X9.8228Y-7.525
X9.8228Y-7.625
X9.8228Y-7.6986
X9.8228Y-5.2
X9.8228Y-5.3
X9.8287Y-3.9041
X9.8375Y-4.1776
X9.8378Y-3.9779
X9.8425Y-2.248
X9.8425Y-2.5
X9.8465Y-7.8459
X9.8465Y-7.65
X9.85Y-1.475
X9.85Y-2.775
X9.8504Y-3.8543
X9.8534Y-7.3386
X9.8604Y-7.6217
X9.8661Y-3.7992
X9.8774Y-7.8616
X9.8819Y-3.748
X9.92Y-1.3185
X9.9211Y-1.9264
X9.937Y-2.8325
X9.937Y-3.565
X9.9591Y-1.8764
X9.976Y-1.8264
X9.985Y-1.7764
X10.002Y-1.7264
X10.0189Y-1.6764
X10.0358Y-1.6264
X10.0535Y-1.5764
X10.0657Y-1.5264
X10.0709Y-3.8805
X10.0787Y-2.8504
X10.0787Y-2.8976
X10.0787Y-2.9488
X10.0787Y-3.0
X10.0787Y-3.0512
X10.0787Y-3.0984
X10.0787Y-3.1496
X10.0787Y-3.2008
X10.085Y-5.2475
X10.0945Y-5.8725
X10.1024Y-5.0092
X10.1024Y-5.275
X10.1024Y-5.475
X10.1102Y-4.675
X10.1102Y-6.748
X10.1181Y-5.6246
X10.1181Y-6.125
X10.1181Y-7.3386
X10.1181Y-7.475
X10.1339Y-5.7717
X10.1339Y-6.7008
X10.1339Y-6.8228
X10.1339Y-6.9528
X10.1339Y-7.5256
X10.1339Y-7.6703
X10.1575Y-4.488
X10.1575Y-4.626
X10.1575Y-4.7283
X10.1575Y-5.9252
X10.1575Y-7.7244
X10.1575Y-8.2992
X10.1575Y-8.4016
X10.1969Y-2.8031
X10.2008Y-1.5
X10.2228Y-3.8528
X10.2244Y-3.9331
X10.2323Y-2.0028
X10.2362Y-1.5514
X10.2598Y-1.5986
X10.2621Y-2.0153
X10.2638Y-2.7283
X10.2725Y-4.825
X10.2725Y-4.9459
X10.275Y-5.6404
X10.2756Y-2.9
X10.2756Y-2.9488
X10.2756Y-3.0
X10.2756Y-1.6496
X10.276Y-2.85
X10.2874Y-6.0236
X10.2874Y-6.2638
X10.2913Y-1.7008
X10.2919Y-2.0051
X10.2937Y-2.7185
X10.2943Y-8.3996
X10.2943Y-8.6892
X10.305Y-5.4
X10.3071Y-1.7486
X10.31Y-5.25
X10.3179Y-8.5512
X10.3205Y-2.0183
X10.3228Y-1.7986
X10.325Y-2.7149
X10.3285Y-3.4173
X10.3386Y-1.8486
X10.3491Y-2.0051
X10.3535Y-8.7207
X10.3542Y-2.7266
X10.3543Y-4.3463
X10.3543Y-5.25
X10.36Y-3.4016
X10.3614Y-1.9016
X10.375Y-7.725
X10.378Y-3.1972
X10.3787Y-2.016
X10.3787Y-3.7236
X10.3819Y-6.9488
X10.3819Y-7.0866
X10.3937Y-3.1496
X10.3937Y-3.3858
X10.4Y-6.595
X10.4016Y-5.0475
X10.4067Y-4.15
X10.4082Y-2.0051
X10.4094Y-3.0984
X10.4213Y-2.3228
X10.4213Y-2.374
X10.4213Y-2.4236
X10.4224Y-4.1
X10.4224Y-5.0722
X10.4252Y-3.3701
X10.4331Y-3.0472
X10.439Y-2.0116
X10.4463Y-5.1496
X10.45Y-4.55
X10.45Y-5.85
X10.45Y-6.675
X10.45Y-7.45
X10.45Y-8.275
X10.4567Y-3.25
X10.4606Y-2.0354
X10.4616Y-3.4025
X10.4803Y-2.0669
X10.4803Y-2.1102
X10.4875Y-7.625
X10.4882Y-7.5275
X10.4882Y-4.488
X10.4961Y-6.126
X10.4961Y-6.2301
X10.4961Y-8.6
X10.4961Y-8.6892
X10.4975Y-7.675
X10.4975Y-7.8841
X10.5Y-4.7717
X10.5039Y-7.0551
X10.5039Y-7.5748
X10.5157Y-3.6772
X10.5197Y-4.8504
X10.5197Y-5.6089
X10.5236Y-4.6024
X10.5236Y-4.7283
X10.525Y-1.475
X10.525Y-2.775
X10.5276Y-7.7756
X10.5276Y-8.3268
X10.5276Y-6.2301
X10.5425Y-4.875
X10.5433Y-3.4016
X10.5472Y-4.6732
X10.57Y-2.825
X10.5775Y-3.5657
X10.5775Y-3.75
X10.5945Y-4.0
X10.595Y-4.362
X10.6181Y-4.2051
X10.6181Y-3.9488
X10.6496Y-4.2051
X10.6496Y-4.05
X10.6811Y-4.2051
X10.7047Y-3.9
X10.7126Y-4.2051
X10.7205Y-3.8504
X10.7441Y-3.7992
X10.7441Y-4.2047
X10.748Y-1.5
X10.748Y-2.7992
X10.748Y-3.613
X10.748Y-3.7
X10.7675Y-5.875
X10.7677Y-5.7698
X10.7913Y-4.4565
X10.7925Y-4.675
X10.7953Y-8.1815
X10.7953Y-8.2992
X10.811Y-2.0039
X10.8189Y-4.5748
X10.8189Y-6.613
X10.8268Y-8.1969
X10.8268Y-8.3504
X10.8268Y-8.7049
X10.8278Y-8.4498
X10.8425Y-2.0039
X10.8425Y-5.175
X10.8583Y-1.9
X10.8701Y-2.8504
X10.874Y-1.85
X10.874Y-2.0051
X10.874Y-3.75
X10.874Y-3.7992
X10.874Y-3.8504
X10.874Y-3.9
X10.874Y-3.9488
X10.874Y-4.0
X10.874Y-4.05
X10.874Y-4.0984
X10.8898Y-1.7992
X10.8937Y-2.9
X10.898Y-7.0866
X10.9055Y-1.75
X10.9055Y-2.0051
X10.9055Y-1.55
X10.9055Y-1.5984
X10.9055Y-1.6496
X10.9055Y-1.7
X10.9094Y-2.9528
X10.9252Y-3.0
X10.9294Y-7.0709
X10.9409Y-3.05
X10.9449Y-4.775
X10.945Y-6.2616
X10.9458Y-6.0479
X10.9459Y-4.6486
X10.9518Y-7.7254
X10.9567Y-3.1
X10.9606Y-7.0591
X10.9606Y-7.626
X10.9625Y-6.95
X10.9676Y-7.8792
X10.9685Y-8.5
X10.9694Y-4.825
X10.9694Y-5.0092
X10.9694Y-5.225
X10.9694Y-5.5301
X10.9694Y-5.975
X10.97Y-5.5947
X10.9724Y-3.1528
X10.9764Y-2.2992
X10.9764Y-2.3504
X10.9764Y-2.4016
X10.9764Y-2.4488
X10.9852Y-5.375
X10.9882Y-3.2
X10.9907Y-7.0719
X10.9921Y-2.6063
X10.9921Y-8.374
X10.9921Y-8.5512
X10.9938Y-6.2812
X10.995Y-5.925
X10.9953Y-7.825
X11.0Y-2.0681
X11.0079Y-2.2992
X11.0246Y-2.6073
X11.0268Y-4.6242
X11.0276Y-4.7717
X11.0315Y-8.5
X11.0315Y-2.0681
X11.0315Y-2.3472
X11.0325Y-8.5522
X11.0354Y-8.374
X11.0374Y-8.7207
X11.0472Y-2.4016
X11.05Y-4.3609
X11.05Y-4.8725
X11.05Y-5.1975
X11.0512Y-4.6693
X11.0512Y-4.7008
X11.0512Y-4.8228
X11.056Y-2.6051
X11.0575Y-7.575
X11.0575Y-7.624
X11.0575Y-7.675
X11.06Y-7.3386
X11.063Y-2.0681
X11.063Y-2.4488
X11.0709Y-1.4117
X11.0787Y-2.55
X11.0875Y-2.6051
X11.0974Y-8.1339
X11.1024Y-1.4094
X11.1024Y-1.55
X11.1024Y-1.5984
X11.1024Y-1.6472
X11.1024Y-1.6972
X11.1181Y-1.9488
X11.1181Y-5.1496
X11.12Y-4.545
X11.122Y-3.3858
X11.124Y-3.25
X11.125Y-5.85
X11.125Y-6.675
X11.125Y-7.45
X11.125Y-8.275
X11.15Y-2.175
X11.1693Y-8.2126
X11.1693Y-8.4016
X11.1725Y-5.2225
X11.1725Y-5.5475
X11.175Y-4.725
X11.175Y-5.025
X11.175Y-7.625
X11.175Y-7.9136
X11.185Y-3.6732
X11.2Y-1.475
X11.2Y-2.775
X11.2638Y-1.748
X11.2638Y-2.3236
X11.2638Y-2.374
X11.2638Y-2.4252
X11.2638Y-2.4764
X11.2874Y-1.8
X11.3032Y-1.8472
X11.3189Y-1.9
X11.3583Y-2.4488
X11.374Y-2.4016
X11.378Y-2.3504
X11.378Y-2.2992
X11.3979Y-4.2681
X11.4173Y-2.9
X11.4173Y-2.95
X11.4173Y-3.0
X11.4173Y-2.8504
X11.4252Y-4.3766
X11.4252Y-4.5719
X11.4282Y-4.2524
X11.4591Y-4.2366
X11.4606Y-5.475
X11.4606Y-5.5939
X11.4606Y-6.95
X11.4606Y-7.105
X11.4764Y-6.2301
X11.4872Y-4.2209
X11.4878Y-8.1972
X11.4921Y-2.5
X11.4921Y-7.388
X11.4921Y-7.4764
X11.4921Y-7.5236
X11.4961Y-2.2472
X11.5118Y-4.2008
X11.5118Y-5.1732
X11.5118Y-5.2244
X11.5118Y-5.2756
X11.5118Y-8.5
X11.5157Y-7.5748
X11.5157Y-8.213
X11.527Y-2.0524
X11.5282Y-8.6405
X11.5375Y-4.2511
X11.5433Y-3.2992
X11.5512Y-2.7992
X11.5551Y-1.5
X11.5563Y-2.0366
X11.5699Y-8.1972
X11.5748Y-3.2992
X11.586Y-2.0209
X11.6063Y-3.2992
X11.6102Y-3.1024
X11.6102Y-3.15
X11.6102Y-3.2008
X11.6114Y-3.05
X11.6125Y-4.4081
X11.6142Y-2.0039
X11.6149Y-8.642
X11.6175Y-7.0876
X11.6181Y-4.7756
X11.6181Y-6.7008
X11.6201Y-7.0305
X11.622Y-2.2992
X11.622Y-2.3504
X11.622Y-2.4016
X11.622Y-2.4488
X11.6299Y-8.45
X11.6339Y-8.213
X11.6339Y-8.2992
X11.6339Y-8.3465
X11.6375Y-3.2948
X11.6375Y-7.775
X11.6375Y-7.93
X11.6378Y-7.498
X11.6378Y-7.5492
X11.6378Y-7.6004
X11.6378Y-7.7234
X11.6411Y-4.7014
X11.6417Y-4.825
X11.6417Y-5.0407
X11.6417Y-5.975
X11.6417Y-6.2301
X11.6417Y-6.55
X11.6417Y-6.9
X11.6425Y-6.75
X11.6475Y-3.3937
X11.6535Y-8.374
X11.6535Y-8.5512
X11.6575Y-2.3031
X11.6575Y-4.9301
X11.68Y-5.925
X11.6801Y-6.2616
X11.6811Y-2.3504
X11.6969Y-2.4016
X11.7126Y-2.4488
X11.725Y-4.3766
X11.725Y-4.725
X11.725Y-5.275
X11.725Y-5.425
X11.725Y-6.8
X11.725Y-6.9975
X11.725Y-7.0876
X11.725Y-8.5
X11.725Y-8.55
X11.7486Y-5.6589
X11.7913Y-5.1496
X11.8Y-2.175
X11.8Y-4.545
X11.8Y-5.85
X11.8Y-6.675
X11.8Y-7.45
X11.8Y-8.275
X11.8307Y-5.8937
X11.8386Y-4.488
X11.8386Y-4.626
X11.8386Y-5.2244
X11.8386Y-5.525
X11.8386Y-5.6431
X11.8465Y-8.3228
X11.8543Y-6.9488
X11.8543Y-7.0876
X11.8543Y-7.825
X11.8543Y-7.8959
X11.8622Y-3.6732
X11.8622Y-4.8268
X11.8701Y-4.488
X11.8701Y-6.58
X11.8701Y-6.85
X11.8701Y-6.9
X11.8725Y-6.75
X11.875Y-1.475
X11.875Y-2.775
X11.878Y-4.875
X11.878Y-4.9935
X11.8858Y-5.325
X11.8858Y-5.4724
X11.9016Y-5.6116
X11.9232Y-3.752
X11.9291Y-1.9488
X11.9291Y-3.248
X11.9291Y-3.3346
X11.9425Y-5.375
X11.9449Y-4.425
X11.9626Y-5.6433
X12.079Y-5.0565
X12.0906Y-4.675
X12.1063Y-3.55
X12.1063Y-4.488
X12.1063Y-4.5748
X12.1086Y-1.3966
X12.1089Y-5.0722
X12.1139Y-5.225
X12.1142Y-4.825
X12.1352Y-1.4134
X12.1375Y-5.1725
X12.1375Y-7.475
X12.1375Y-7.525
X12.1378Y-4.752
X12.1378Y-5.088
X12.1427Y-8.3524
X12.1427Y-8.6709
X12.1611Y-5.875
X12.1611Y-6.2459
X12.1614Y-1.437
X12.1614Y-4.626
X12.1614Y-4.8504
X12.1654Y-7.0551
X12.1693Y-6.9016
X12.1928Y-1.4346
X12.2008Y-3.5815
X12.2323Y-3.5815
X12.2325Y-5.56
X12.2738Y-2.7992
X12.2738Y-3.5899
X12.275Y-4.6775
X12.275Y-5.425
X12.275Y-4.775
X12.275Y-5.0564
X12.2756Y-6.613
X12.2756Y-6.7992
X12.2756Y-6.8504
X12.2805Y-7.726
X12.2896Y-2.752
X12.2896Y-3.6181
X12.3053Y-1.9236
X12.3211Y-1.8764
X12.3222Y-4.725
X12.3353Y-4.4565
X12.3368Y-1.8236
X12.3435Y-6.5972
X12.345Y-6.95
X12.35Y-5.7559
X12.35Y-5.975
X12.3514Y-4.625
X12.3526Y-1.7756
X12.3683Y-1.7244
X12.371Y-6.5818
X12.375Y-4.488
X12.375Y-5.225
X12.375Y-6.613
X12.375Y-6.8
X12.375Y-7.3407
X12.375Y-7.625
X12.3841Y-1.6736
X12.3959Y-1.6236
X12.4234Y-1.5736
X12.4234Y-3.8228
X12.4234Y-3.874
X12.4234Y-3.9252
X12.4234Y-3.9764
X12.4234Y-4.0236
X12.4234Y-4.0787
X12.4234Y-4.1299
X12.4234Y-4.1772
X12.447Y-2.2244
X12.447Y-2.874
X12.447Y-2.9236
X12.45Y-4.55
X12.45Y-5.15
X12.45Y-5.85
X12.45Y-6.675
X12.45Y-7.45
X12.45Y-8.275
X12.4628Y-2.2756
X12.4628Y-2.975
X12.4776Y-8.2126
X12.485Y-5.925
X12.485Y-6.1475
X12.4921Y-7.5748
X12.4925Y-7.3722
X12.4925Y-7.525
X12.5Y-4.825
X12.5Y-5.088
X12.5Y-5.325
X12.5Y-5.375
X12.5Y-5.5801
X12.5Y-6.9225
X12.514Y-1.8994
X12.5179Y-2.8504
X12.53Y-6.613
X12.5337Y-2.9016
X12.5376Y-1.8504
X12.5486Y-5.6274
X12.5494Y-2.9488
X12.55Y-5.275
X12.5533Y-1.8031
X12.5652Y-3.0
X12.5691Y-1.748
X12.5809Y-6.5657
X12.5809Y-3.0472
X12.5848Y-1.7008
X12.5967Y-3.0984
X12.6006Y-1.6496
X12.6085Y-2.2598
X12.6124Y-2.1614
X12.6124Y-2.4016
X12.6124Y-2.5
X12.6124Y-2.5984
X12.6124Y-2.7008
X12.6124Y-3.1496
X12.6163Y-1.5984
X12.6163Y-1.9606
X12.6163Y-2.0591
X12.636Y-2.2008
X12.636Y-2.2992
X12.636Y-2.3583
X12.636Y-2.4606
X12.636Y-2.5591
X12.636Y-2.6575
X12.636Y-3.2008
X12.64Y-1.5
X12.64Y-1.5512
X12.64Y-2.0
X12.64Y-2.0984
X12.7625Y-7.0551
X12.7638Y-6.85
X12.7874Y-5.788
X12.7874Y-6.9488
X12.7875Y-7.475
X12.7875Y-7.575
X12.7875Y-7.75
X12.7913Y-8.4016
X12.7913Y-8.5787
X12.8Y-4.2275
X12.8289Y-1.5
X12.8422Y-2.9
X12.8975Y-6.5815
X12.8975Y-6.7
X12.9Y-5.925
X12.9Y-6.2225
X12.9Y-6.75
X12.9125Y-8.55
X12.9125Y-8.6709
X12.9134Y-7.7244
X12.9134Y-7.8661
X12.927Y-7.3565
X12.9289Y-7.525
X12.9448Y-7.8676
X12.9547Y-6.925
X12.9547Y-7.3722
X12.9764Y-5.9742
X12.9783Y-6.9
X12.9783Y-7.525
X12.9783Y-7.625
X12.9783Y-7.725
X12.9814Y-5.375
X12.9814Y-5.5725
X13.0Y-4.25
X13.0Y-4.488
X13.0Y-5.088
X13.0Y-5.225
X13.0Y-5.275
X13.0Y-5.788
X13.0Y-5.9225
X13.002Y-7.7756
X13.0039Y-8.6506
X13.005Y-5.325
X13.0179Y-1.5
X13.0256Y-7.055
X13.075Y-4.55
X13.075Y-5.15
X13.075Y-5.85
X13.075Y-6.675
X13.075Y-7.45
X13.075Y-8.275
X13.1225Y-6.8
X13.125Y-6.613
X13.126Y-7.388
X13.126Y-7.5748
X13.126Y-8.213
X13.1496Y-7.0
X13.1575Y-6.6125
X13.1575Y-6.85
T0
M30
